<?xml version="1.0" standalone="no"?>
<!DOCTYPE svg PUBLIC "-//W3C//DTD SVG 20010904//EN"
 "http://www.w3.org/TR/2001/REC-SVG-20010904/DTD/svg10.dtd">
<svg version="1.0" xmlns="http://www.w3.org/2000/svg"
 width="500.000000pt" height="500.000000pt" viewBox="0 0 500.000000 500.000000"
 preserveAspectRatio="xMidYMid meet">

<g transform="translate(0.000000,500.000000) scale(0.100000,-0.100000)"
fill="#000000" stroke="none">
<path d="M0 3979 c0 -589 4 -1018 9 -1015 12 8 939 -320 971 -342 49 -35 70
-96 70 -202 0 -104 -11 -133 -54 -144 -17 -4 -167 44 -506 164 -265 94 -484
170 -486 170 -2 0 -4 -83 -4 -185 0 -102 2 -185 3 -185 2 0 69 23 148 51 113
40 153 50 184 45 22 -3 132 -38 245 -79 200 -72 238 -94 193 -112 -82 -32
-737 -257 -753 -258 -20 -1 -20 -5 -20 -944 l0 -943 2500 0 2500 0 0 1140 c0
937 -2 1138 -13 1134 -10 -3 -860 289 -990 341 -36 15 -47 58 -47 188 0 130 4
143 52 160 18 6 934 -312 976 -339 l22 -14 0 1195 0 1195 -2500 0 -2500 0 0
-1021z m3170 -1325 c0 -74 4 -144 10 -154 15 -28 -14 -44 -90 -48 -63 -3 -71
-1 -100 25 -85 76 -25 216 92 216 l38 0 0 48 c0 46 2 49 25 49 l25 0 0 -136z
m-1940 46 l0 -60 55 0 55 0 0 60 0 60 30 0 30 0 0 -155 0 -155 -30 0 -30 0 0
65 0 65 -55 0 -55 0 0 -65 0 -65 -30 0 -30 0 0 155 0 155 30 0 30 0 0 -60z
m370 -69 c0 -121 -2 -132 -23 -157 -18 -20 -33 -27 -64 -28 -49 -1 -73 17 -73
55 l0 28 30 -17 c23 -13 34 -14 47 -6 15 9 18 29 21 133 l3 121 29 0 30 0 0
-129z m828 123 c17 -5 22 -14 22 -41 0 -30 -2 -33 -19 -23 -11 5 -40 10 -64
10 -38 0 -49 -5 -71 -31 -44 -52 -30 -136 26 -160 45 -19 82 -2 86 39 3 28 0
32 -21 32 -18 0 -26 6 -29 25 -5 24 -4 25 53 25 l59 0 0 -65 c0 -76 -15 -97
-79 -115 -176 -47 -264 195 -107 291 31 19 98 25 144 13z m280 -87 c18 -17 22
-31 22 -84 0 -36 5 -74 11 -85 16 -30 -9 -41 -98 -46 -62 -3 -75 0 -92 17 -56
56 -2 131 95 131 32 0 34 2 23 21 -10 19 -18 21 -65 17 -41 -4 -54 -1 -59 10
-8 20 6 33 47 42 45 10 89 1 116 -23z m228 6 c-3 -8 -6 -21 -6 -28 0 -8 -7
-11 -20 -8 -39 10 -50 -13 -50 -103 l0 -84 -30 0 -30 0 0 120 0 120 45 -2 c25
0 48 1 51 4 11 12 45 -5 40 -19z m499 -15 c29 -34 34 -92 9 -102 -9 -3 -47 -6
-86 -6 -51 0 -69 -3 -66 -12 8 -24 52 -39 101 -34 44 5 47 4 47 -18 0 -29 -16
-36 -78 -36 -52 0 -104 26 -122 61 -20 36 -7 117 22 146 49 48 133 49 173 1z
m260 11 c17 -16 21 -37 25 -119 l5 -100 -27 0 c-28 0 -28 1 -28 64 0 83 -15
126 -44 126 -38 0 -46 -19 -46 -107 l0 -83 -30 0 -30 0 0 121 0 122 38 -5 c20
-3 46 -2 57 3 26 10 55 2 80 -22z m-1707 -76 c-3 -27 -5 -28 -75 -31 l-73 -3
0 31 0 30 76 0 75 0 -3 -27z m2592 -336 c200 -72 238 -94 193 -112 -111 -43
-742 -257 -760 -257 -13 0 -33 8 -43 17 -18 16 -20 32 -20 144 0 123 3 138 37
180 1 2 69 28 150 58 120 43 157 52 193 49 25 -3 137 -38 250 -79z m-1900
-120 l0 -84 -37 -1 c-47 -2 -63 12 -63 54 0 40 25 67 57 61 20 -4 23 0 23 24
0 16 5 29 10 29 6 0 10 -34 10 -83z m-1402 15 c3 -9 -3 -11 -21 -7 -37 10 -44
-13 -9 -26 35 -12 48 -35 31 -56 -14 -16 -76 -14 -71 2 2 6 14 9 27 7 35 -5
31 13 -5 28 -31 13 -42 53 -17 64 21 9 60 2 65 -12z m116 2 c9 -8 16 -24 16
-35 0 -16 -7 -19 -41 -19 -44 0 -52 -25 -8 -26 13 0 25 -4 27 -10 4 -14 -47
-17 -64 -3 -17 14 -19 80 -2 97 17 17 54 15 72 -4z m66 -34 c0 -34 4 -50 13
-50 23 0 37 23 37 62 0 21 5 38 10 38 6 0 10 -26 10 -58 l0 -58 -42 -1 c-24
-1 -46 3 -50 10 -9 15 -10 91 -1 100 16 17 23 3 23 -43z m200 30 c14 -26 13
-73 -2 -88 -7 -7 -25 -12 -40 -12 -21 0 -28 -5 -28 -20 0 -11 -4 -20 -10 -20
-6 0 -10 33 -10 78 l0 78 40 1 c30 2 42 -3 50 -17z m110 5 c0 -8 -10 -15 -22
-17 -19 -2 -24 -10 -26 -45 -5 -64 -22 -52 -22 15 l0 58 35 1 c23 1 35 -4 35
-12z m104 -1 c19 -18 21 -75 4 -92 -13 -13 -57 -16 -75 -4 -6 4 -15 20 -18 35
-15 57 49 101 89 61z m144 -53 c2 -38 -2 -68 -9 -77 -13 -16 -89 -19 -89 -4 0
6 16 10 35 10 23 0 35 5 35 14 0 9 -8 12 -24 9 -31 -6 -61 35 -51 69 12 39 26
48 64 45 l36 -4 3 -62z m102 53 c0 -6 -9 -14 -20 -17 -16 -4 -20 -14 -20 -46
0 -30 -4 -41 -15 -41 -12 0 -15 13 -15 58 l0 58 35 0 c20 0 35 -5 35 -12z
m110 -10 c6 -14 10 -40 10 -59 l0 -34 -47 2 c-42 2 -48 5 -51 26 -4 27 12 41
46 41 31 0 23 25 -9 26 -40 2 -45 4 -29 14 8 5 27 10 43 10 20 0 30 -7 37 -26z
m120 16 c0 -5 11 -5 25 2 37 17 55 -4 55 -63 0 -37 -4 -49 -15 -49 -11 0 -15
12 -15 50 0 28 -4 50 -8 50 -18 0 -32 -26 -32 -62 0 -27 -4 -38 -15 -38 -11 0
-15 12 -15 50 0 28 -4 50 -8 50 -18 0 -32 -26 -32 -62 0 -21 -4 -38 -10 -38
-6 0 -10 26 -10 58 l0 58 40 1 c22 1 40 -2 40 -7z m184 4 c12 -5 16 -20 16
-59 l0 -53 -42 2 c-41 1 -43 3 -43 31 0 25 5 31 29 35 38 6 34 26 -5 22 -16
-1 -29 2 -29 7 0 17 44 26 74 15z m268 -11 c20 -18 23 -54 8 -84 -7 -13 -21
-19 -45 -19 -24 0 -38 6 -45 19 -34 65 30 132 82 84z m68 5 c0 -9 3 -9 12 0 7
7 18 12 25 12 22 0 14 -20 -12 -30 -21 -8 -25 -16 -25 -50 0 -22 -4 -40 -10
-40 -6 0 -10 27 -10 60 0 33 4 60 10 60 6 0 10 -5 10 -12z"/>
<path d="M3033 2625 c-16 -11 -23 -26 -23 -51 0 -46 31 -76 73 -72 l32 3 0 65
c0 65 0 65 -30 68 -16 1 -40 -4 -52 -13z"/>
<path d="M2605 2546 c-31 -22 -12 -48 32 -44 33 3 38 7 41 31 3 24 0 27 -25
27 -16 0 -38 -6 -48 -14z"/>
<path d="M3324 2640 c-12 -4 -24 -15 -27 -24 -5 -13 3 -16 48 -16 59 0 68 10
33 34 -25 18 -25 18 -54 6z"/>
<path d="M2611 2132 c-16 -29 -2 -64 23 -60 37 5 32 77 -6 78 -4 0 -12 -8 -17
-18z"/>
<path d="M1337 2135 c-5 -11 0 -15 19 -15 16 0 24 5 22 13 -7 18 -35 20 -41 2z"/>
<path d="M1603 2143 c-19 -7 -16 -62 3 -70 23 -9 45 23 35 50 -9 23 -19 28
-38 20z"/>
<path d="M1814 2136 c-11 -28 1 -61 22 -64 25 -4 39 31 23 60 -12 21 -37 24
-45 4z"/>
<path d="M1951 2136 c-19 -23 -10 -61 14 -61 16 0 20 7 20 34 0 38 -15 50 -34
27z"/>
<path d="M2181 2099 c-18 -7 -21 -13 -13 -21 14 -14 42 -3 42 17 0 8 -1 15 -2
14 -2 0 -14 -5 -27 -10z"/>
<path d="M2487 2093 c-14 -13 -6 -24 15 -21 27 4 36 28 11 28 -11 0 -23 -3
-26 -7z"/>
<path d="M2744 2136 c-11 -28 0 -61 21 -61 16 0 20 7 20 35 0 25 -5 36 -18 38
-9 2 -20 -3 -23 -12z"/>
</g>
</svg>
